<?xml version="1.0" encoding="utf-8"?>
<!-- Generator: Adobe Illustrator 19.2.0, SVG Export Plug-In . SVG Version: 6.00 Build 0)  -->
<svg version="1.1" id="Logo_-_GT_pressura_SMALL_copy"
	 xmlns="http://www.w3.org/2000/svg" xmlns:xlink="http://www.w3.org/1999/xlink" x="0px" y="0px" viewBox="0 0 559.5 307.5"
	 style="enable-background:new 0 0 559.5 307.5;" xml:space="preserve">
<style type="text/css">
	.st0{fill:#EF4070;}
	.st1{fill:#FFFFFF;}
</style>
<g>
	<path class="st0" d="M225.8,257.1c-6.4,0-11.6,5.2-11.6,11.6c0,6.4,5.2,11.6,11.6,11.6c6.4,0,11.6-5.2,11.6-11.6
		C237.4,262.3,232.2,257.1,225.8,257.1z"/>
	<path class="st0" d="M537.3,78.3c6.4,0,11.6-5.2,11.6-11.6c0-6.4-5.2-11.6-11.6-11.6c-6.4,0-11.6,5.2-11.6,11.6
		C525.7,73.1,530.9,78.3,537.3,78.3z"/>
	<path class="st0" d="M536.9,109.6c-2.8,0-5.4,1-7.4,2.7c-0.9,0-1.8,0-2.7,0c1.7-2,2.8-4.6,2.8-7.5c0-3.6-1.7-6.9-4.3-9
		c3.1-2.1,5.2-5.6,5.2-9.6c0-5-3.1-9.2-7.5-10.9c-1.4-0.6-2.9-0.9-4.5-0.9c-3.6,0-6.7,1.6-8.9,4.2c-0.7-0.9-1.5-1.8-2.4-2.5
		c1.9-1.4,3.3-3.4,4-5.7c0.1-0.2,0.1-0.4,0.2-0.5c0-0.1,0.1-0.2,0.1-0.4c0.2-0.9,0.4-1.8,0.4-2.8c0-6.4-5.2-11.6-11.6-11.6
		c-3.6,0-6.8,1.6-9,4.2c-2.1-2.8-5.5-4.7-9.3-4.7c-6.4,0-11.6,5.2-11.6,11.6c0,4.3,2.4,8.1,5.9,10.1c-0.2,0.1-0.4,0.2-0.6,0.4
		c-1.1,0.5-2.1,1.3-3,2.1c-2.1-2.6-5.3-4.3-8.9-4.3c-3.6,0-6.8,1.7-8.9,4.2c-0.1-0.1-0.2-0.1-0.2-0.2c-0.7-0.9-1.5-1.7-2.4-2.3
		c3-2.1,4.9-5.6,4.9-9.5c0-4.1-2.1-7.7-5.3-9.7c3.2-2.1,5.3-5.7,5.3-9.7c0-6.4-5.2-11.6-11.6-11.6c-3.9,0-7.4,1.9-9.5,4.9
		c-0.6-0.7-1.3-1.4-2.1-2c3-2.1,4.9-5.6,4.9-9.5c0-6.4-5.2-11.6-11.6-11.6c-6.4,0-11.6,5.2-11.6,11.6c0,3.9,2,7.4,4.9,9.5
		c-1.1,0.8-2.1,1.8-2.9,2.9c-2.1-2.4-5.2-4-8.7-4c-6.4,0-11.6,5.2-11.6,11.6c0,6.4,5.2,11.6,11.6,11.6c4,0,7.5-2,9.6-5
		c0.7,0.8,1.5,1.5,2.5,2.1c-3.2,2.1-5.4,5.7-5.4,9.8c0,3.6,1.6,6.7,4.2,8.8c-0.5,0.5-1,1-1.5,1.5c-2.1-2.9-5.5-4.7-9.3-4.7
		c-3.8,0-7.2,1.9-9.3,4.7c-0.6-0.8-1.3-1.4-2.1-2c2.6-2.1,4.3-5.4,4.3-9.1c0-6.4-5.2-11.6-11.6-11.6s-11.6,5.2-11.6,11.6
		c0,3.8,1.9,7.2,4.8,9.4c-0.8,0.6-1.4,1.3-2,2.1c0,0-0.1,0-0.1,0c-2.1-2.7-5.4-4.4-9-4.4c-3.6,0-6.8,1.7-8.9,4.2
		c-2.1-2.8-5.4-4.6-9.2-4.6c-6.4,0-11.6,5.2-11.6,11.6c0,4.1,2.1,7.7,5.4,9.8c-1,0.6-1.8,1.4-2.6,2.3c0,0,0,0.1-0.1,0.1
		c-2.1-2.6-5.4-4.3-9-4.3c-3.5,0-6.6,1.5-8.7,3.9c-2.1-2.9-5.5-4.8-9.4-4.8c-3.7,0-7,1.8-9.1,4.5c-0.4-0.5-0.9-1-1.4-1.5
		c2.4-2.1,3.9-5.2,3.9-8.6c0-6.4-5.2-11.6-11.6-11.6c-3.5,0-6.6,1.6-8.8,4.1c-2.1-3-5.6-5-9.5-5c-6.4,0-11.6,5.2-11.6,11.6
		c0,3.9,2,7.4,5,9.5c-1.1,0.8-2,1.7-2.7,2.8c-2.1-3-5.6-4.9-9.5-4.9c-0.1,0-0.2,0-0.3,0c-0.1,0-0.1,0-0.2,0c-2.8,0-5.4,1-7.4,2.6
		l0.1,0.3c-2.3,2.1-3.8,5.1-3.9,8.5c-0.1,0.5-0.1,1.1-0.1,1.7c0,2.9,1.1,5.6,2.9,7.6h0.3c-0.3,0.3-0.5,0.6-0.7,0.9
		c-2.1-2.2-5.1-3.6-8.4-3.6c-3.5,0-6.6,1.5-8.7,3.9c-0.3-0.4-0.7-0.8-1.1-1.2h0.5c1.6-1.8,2.7-4.2,2.9-6.8c0.1-0.6,0.2-1.2,0.2-1.9
		c0-3.2-1.3-6.1-3.4-8.2c0-0.1,0-0.1,0-0.1h-0.2c-0.1-0.1-0.3-0.3-0.4-0.4v-0.2c-2.1-2-4.9-3.3-8-3.3c-3.7,0-7,1.8-9.1,4.5
		c-0.6-0.8-1.3-1.4-2-2c2.7-2.1,4.5-5.4,4.5-9.1c0-6.4-5.2-11.6-11.6-11.6c-3.7,0-7,1.8-9.1,4.5c-0.3-0.3-0.5-0.6-0.8-0.9
		c2-2.1,3.2-4.9,3.2-8c0-6.4-5.2-11.6-11.6-11.6c-6.4,0-11.6,5.2-11.6,11.6c0,3.2,1.3,6,3.3,8.1c-0.3,0.3-0.5,0.6-0.7,0.8
		c-2.1-2.7-5.4-4.5-9.1-4.5c-6.4,0-11.6,5.2-11.6,11.6c0,3.7,1.8,7,4.5,9.1c-0.8,0.6-1.4,1.3-2,2c-2.1-2.7-5.4-4.5-9.1-4.5
		c-3.4,0-6.5,1.5-8.6,3.9c-0.5-0.8-1.1-1.5-1.7-2.1c2.2-2.1,3.7-5.1,3.7-8.4c0-6.4-5.2-11.6-11.6-11.6c-6.4,0-11.6,5.2-11.6,11.6
		c0,3.3,1.4,6.2,3.6,8.3c-2.3,2.1-3.7,5.1-3.7,8.5c0,3.5,1.6,6.7,4.1,8.8c-0.7,0.5-1.3,1.1-1.9,1.8c-2.1-2.6-5.4-4.3-9-4.3
		c-3.5,0-6.7,1.6-8.8,4c-0.5-0.6-1.1-1.2-1.8-1.7c2.4-2.1,4-5.2,4-8.7c0-6.4-5.2-11.6-11.6-11.6c-6.4,0-11.6,5.2-11.6,11.6
		c0,2.7,0.9,5.2,2.5,7.1c0.6,0.8,1.3,1.6,2.1,2.2c-0.7,0.7-1.4,1.4-1.9,2.2c-2.1-2.7-5.4-4.5-9.1-4.5c-3.7,0-6.9,1.7-9.1,4.4
		c-0.5-0.6-1-1.1-1.6-1.6c2.6-2.1,4.2-5.3,4.2-8.9c0-0.1,0-0.3,0-0.4c0,0,0,0,0-0.1c0-6.4-5.2-11.6-11.6-11.6c-3.2,0-6,1.3-8.1,3.4
		v0.4c-2.2,2.1-3.5,5-3.5,8.3c0,3.6,1.6,6.8,4.2,8.9c-2.5,2.1-4.2,5.3-4.2,8.9c0,3.7,1.8,7,4.5,9.1c-1.1,0.8-2,1.8-2.7,2.9
		c-2.1-2.5-5.3-4.1-8.8-4.1c-6.4,0-11.6,5.2-11.6,11.6c0,3.3,1.4,6.2,3.6,8.3c-1.1,1.2-1.9,2.6-2.4,4.2c0,0,0,0.1-0.1,0.1
		c0,0,0,0,0,0c-0.3,1-0.5,2.1-0.5,3.3c0,6.4,5.2,11.6,11.6,11.6c2.2,0,4.3-0.6,6.1-1.7c0.6,0.4,1.2,0.9,1.7,1.4
		c-1.5,1.9-2.4,4.4-2.4,7c0,3.1,1.2,5.9,3.2,8c-0.5,0.7-1.1,1.3-1.8,1.9c-1.9-1.4-4.2-2.2-6.8-2.2c-3.8,0-7.1,1.8-9.3,4.6
		c-0.1,0.1-0.2,0.2-0.3,0.3c-2.1-2.7-5.4-4.5-9.1-4.5c-0.1,0-0.2,0-0.3,0c-0.1,0-0.2,0-0.3,0c-6.4,0-11.6,5.2-11.6,11.6
		c0,6.4,5.2,11.6,11.6,11.6c0.1,0,0.2,0,0.3,0c0.1,0,0.2,0,0.3,0c3.7,0,7-1.8,9.1-4.5c0.8,1,1.8,1.9,2.9,2.7
		c-3.1,2.1-5.2,5.6-5.2,9.7c0,6.4,5.2,11.6,11.6,11.6c6.4,0,11.6-5.2,11.6-11.6c0-4.1-2.1-7.7-5.4-9.8c0.6-0.4,1.2-0.9,1.7-1.4
		c0.3-0.3,0.7-0.6,1-1c2.1,2.8,5.5,4.6,9.3,4.6c3.7,0,7.1-1.8,9.2-4.5c0.7,0.9,1.6,1.7,2.6,2.4c-3.2,2.1-5.3,5.6-5.3,9.7
		c0,6.4,5.2,11.6,11.6,11.6c3.7,0,7-1.8,9.1-4.5c0.4,0.6,0.9,1.1,1.5,1.6c-2.4,2.1-3.9,5.2-3.9,8.6c0,3.7,1.8,7,4.5,9.1
		c-2.8,2.1-4.6,5.4-4.6,9.2c0,6.4,5.2,11.6,11.6,11.6c3.9,0,7.3-1.9,9.4-4.8c2.1,2.6,5.3,4.3,9,4.3c6.4,0,11.6-5.2,11.6-11.6
		c0-6.4-5.2-11.6-11.6-11.6c-3.9,0-7.3,1.9-9.4,4.8c-0.5-0.7-1.2-1.3-1.8-1.8c2.8-2.1,4.6-5.4,4.6-9.2c0-3.5-1.6-6.6-4-8.7
		c0.5-0.5,1-1,1.4-1.5c2.1,2.5,5.3,4.1,8.8,4.1c3.9,0,7.3-1.9,9.4-4.9c0.5,0.6,1.1,1.2,1.7,1.7c-2.5,2.1-4.1,5.3-4.1,8.9
		c0,6.4,5.2,11.6,11.6,11.6c3.5,0,6.6-1.6,8.7-4.1c2.1,3,5.6,5,9.5,5c3.7,0,7-1.8,9.1-4.5c0.6,0.6,1.2,1.2,1.9,1.7
		c-2.8,2.1-4.7,5.5-4.7,9.3c0,1.2,0.2,2.4,0.5,3.5c1.4,4.8,5.9,8.4,11.2,8.4c4.1,0,7.6-2.1,9.7-5.2c0.7,0.8,1.6,1.4,2.5,1.9
		c-2.9,2.1-4.8,5.5-4.8,9.4c0,6.4,5.2,11.6,11.6,11.6c6.4,0,11.6-5.2,11.6-11.6c0-4.3-2.3-8-5.7-10c1-0.7,1.9-1.5,2.6-2.5
		c2.1,2.8,5.5,4.6,9.3,4.6c2.8,0,5.4-1,7.4-2.7c2.6-2.1,4.3-5.4,4.3-9c0-3.4-1.5-6.5-3.9-8.6c0.6-0.6,1.2-1.3,1.7-2.1
		c0.9,1,1.9,1.9,3,2.5c1.8,1.1,3.9,1.8,6.2,1.8c3.7,0,6.9-1.7,9.1-4.3c0.6,0.7,1.2,1.3,1.9,1.8c-1.5,1.1-2.6,2.5-3.5,4.2
		c-0.9,1.6-1.4,3.5-1.4,5.5c0,6.4,5.2,11.6,11.6,11.6c6.4,0,11.6-5.2,11.6-11.6c0-2.7-0.9-5.1-2.4-7.1c0.6-0.9,1.3-1.6,2.2-2.3
		c2,1.6,4.6,2.6,7.3,2.6c2.8,0,5.3-1,7.3-2.6c0.7,0.6,1.4,1.3,2,2c-1.6,2-2.6,4.5-2.6,7.3c0,6.4,5.2,11.6,11.6,11.6
		c5.2,0,9.6-3.4,11.1-8.2c0.6-1.4,0.9-2.9,0.9-4.5c0-4.2-2.2-7.8-5.5-9.8c0.9-0.6,1.7-1.3,2.4-2.2c2.1,2.5,5.3,4.2,8.9,4.2
		c6.4,0,11.6-5.2,11.6-11.6c0-3.6-1.7-6.8-4.2-8.9c0.6-0.5,1.1-1,1.6-1.6c2.1,3,5.6,4.9,9.5,4.9c3.3,0,6.2-1.4,8.3-3.5
		c0.4,0.6,1,1.1,1.5,1.6c-2,2.1-3.2,4.8-3.2,7.9c0,6.4,5.2,11.6,11.6,11.6c6.4,0,11.6-5.2,11.6-11.6c0-3.4-1.5-6.5-3.9-8.6
		c0.6-0.6,1.1-1.4,1.6-2.1c2.1,2.9,5.5,4.8,9.4,4.8c3,0,5.8-1.2,7.8-3.1c2.1,1.9,4.8,3.1,7.8,3.1c6.4,0,11.6-5.2,11.6-11.6
		c0-2.1-0.6-4.1-1.6-5.9c0.3,0,0.6-0.1,0.9-0.1c2.1,1.9,4.8,3.1,7.9,3.1c3.8,0,7.1-1.8,9.3-4.6c0.3,0,0.7-0.1,1-0.1
		c-1.7,2-2.8,4.7-2.8,7.5c0,6.4,5.2,11.6,11.6,11.6c3.1,0,5.9-1.2,8-3.2c2.1,2.9,5.5,4.7,9.3,4.7c0,0,0.1,0,0.1,0
		c0.3,0,0.6,0.1,0.9,0.1c3.7,0,7-1.8,9.1-4.5c0.7,0.9,1.5,1.7,2.5,2.3c-3,2.1-4.9,5.6-4.9,9.5c0,6.4,5.2,11.6,11.6,11.6
		c3.5,0,6.6-1.6,8.7-4c2.1,2.8,5.4,4.6,9.2,4.6c6.4,0,11.6-5.2,11.6-11.6c0-3.8-1.9-7.2-4.7-9.3c1.2-0.8,2.3-1.9,3.1-3.1
		c2.1,2.4,5.2,3.9,8.6,3.9c3.6,0,6.7-1.6,8.9-4.2c2.1,2.4,5.2,4,8.7,4c6.4,0,11.6-5.2,11.6-11.6c0-3.2-1.3-6-3.4-8.1
		c2.3-2.1,3.8-5.2,3.8-8.6c0-3.8-1.8-7.1-4.6-9.3c0.9-0.7,1.8-1.6,2.5-2.5c2.1,2.8,5.5,4.6,9.3,4.6c6.4,0,11.6-5.2,11.6-11.6
		c0-3.5-1.5-6.6-3.9-8.7c-0.1-0.6-0.1-1.2-0.2-1.8c0.3-0.4,0.7-0.7,1-1.1c2.1,2.5,5.3,4.1,8.8,4.1c6.4,0,11.6-5.2,11.6-11.6
		c0-0.3,0-0.6,0-0.9c0,0,0,0,0,0c0,0,0-0.1-0.1-0.1c-0.3-3.3-1.8-6.1-4.2-8.1c-0.1-0.1-0.2-0.3-0.3-0.3c2.6-2.1,4.3-5.3,4.3-9
		c0-3.5-1.5-6.5-4-8.7c3.1-2.1,5.1-5.6,5.1-9.6c0-0.1,0-0.2,0-0.3c0-0.1,0-0.3,0-0.4C548.6,114.9,543.4,109.6,536.9,109.6z
		 M199.1,242.4c-2.1-2.9-5.5-4.8-9.4-4.8c-4.1,0-7.6,2.1-9.7,5.2c-0.4-0.5-0.9-0.9-1.4-1.2c2.9-2.1,4.8-5.5,4.8-9.4
		c0-3.7-1.7-7-4.4-9.1c0.5-0.4,0.9-0.8,1.3-1.2c2.1,3,5.6,5,9.5,5c3.7,0,7-1.7,9.1-4.4c0.5,0.4,1,0.9,1.5,1.2
		c-2.3,2.1-3.8,5.2-3.8,8.5c0,3.4,1.5,6.5,3.8,8.6C200,241.3,199.5,241.9,199.1,242.4z M256.6,205v-0.2c0,0,0.1,0.1,0.1,0.1
		C256.7,204.9,256.6,204.9,256.6,205z M472.4,115.6c-2.1-2.1-5-3.5-8.3-3.5c-3.1,0-6,1.2-8.1,3.3c-0.5-0.6-1-1.2-1.5-1.7
		c2.4-2.1,3.9-5.2,3.9-8.7c0-3.6-1.7-6.9-4.3-9c0.5-0.4,1-0.9,1.5-1.4c2.1,2.3,5.1,3.7,8.5,3.7c3.2,0,6.1-1.3,8.2-3.4
		c0.5,0.5,1.1,1,1.7,1.5c-2.3,2.1-3.8,5.2-3.8,8.6c0,3.5,1.5,6.5,3.9,8.7C473.4,114.3,472.9,114.9,472.4,115.6z"/>
	<path class="st0" d="M44.3,97.4c6.4,0,11.6-5.2,11.6-11.6c0-6.4-5.2-11.6-11.6-11.6c-6.4,0-11.6,5.2-11.6,11.6
		C32.6,92.2,37.9,97.4,44.3,97.4z"/>
	<path class="st0" d="M227.3,79.4c6.4,0,11.6-5.2,11.6-11.6c0-6.4-5.2-11.6-11.6-11.6c-6.4,0-11.6,5.2-11.6,11.6
		C215.6,74.2,220.8,79.4,227.3,79.4z"/>
</g>
<g>
	<path class="st1" d="M142.6,166.5c-0.5,0-0.8,0.3-0.8,0.8v20.3c0,0.9-0.7,1.6-1.6,1.6H132c-0.9,0-1.6-0.7-1.6-1.6v-53.5
		c0-0.9,0.7-1.6,1.6-1.6h17.8c9.3,0,17,7.7,17,17c0,6.2-2.7,10.5-8.4,14.4c-1.1,0.8-1.1,1.5-0.5,2.7l8.7,20.3
		c0.6,1.2,0.1,2.4-1.5,2.4h-8.4c-1.3,0-1.9-0.7-2.4-1.6l-8.3-20c-0.2-0.4-0.6-1.1-1.5-1.1L142.6,166.5L142.6,166.5z M142.6,143.8
		c-0.5,0-0.8,0.3-0.8,0.8v9.7c0,0.5,0.3,0.8,0.8,0.8h7.3c3.1,0,5.7-2.5,5.7-5.7c0-3.1-2.6-5.7-5.7-5.7H142.6z"/>
	<path class="st1" d="M205,168.9c0-0.5-0.3-0.8-0.8-0.8h-5.5c-0.9,0-1.6-0.7-1.6-1.6v-7.7c0-0.9,0.7-1.6,1.6-1.6h15.8
		c0.9,0,1.6,0.7,1.6,1.6v13.6c0,9.7-8.2,17.8-19.3,17.8c-11.2,0-18.2-8.2-19.3-17.9c-0.8-6.8-0.8-15.9,0-22.7
		c1.1-9.7,8.1-17.9,19.3-17.9c11.2,0,19.3,7.7,19.3,18.5v0.1c0,0.8-0.7,1.6-1.6,1.6h-8.1c-0.9,0-1.6-0.7-1.6-1.6v-0.1
		c0-3.3-2.8-7.1-7.9-7.1c-4.9,0-7.5,2.9-7.9,6.5c-0.8,6.8-0.8,15.9,0,22.7c0.4,3.6,2.9,6.5,7.9,6.5c4.9,0,8.2-2.7,8.2-6.3L205,168.9
		L205,168.9z"/>
	<path class="st1" d="M251.3,179.7c-0.2-0.6-0.5-1.2-1.2-1.2h-12.3c-0.7,0-1.1,0.5-1.2,1.2l-2.3,8.4c-0.2,0.7-0.8,1.2-1.5,1.2h-8.5
		c-1.3,0-1.8-0.9-1.6-1.6l14.5-53.9c0.2-0.7,0.8-1.2,1.5-1.2h10.9c0.7,0,1.4,0.5,1.5,1.2l14.4,53.9c0.2,0.7-0.3,1.6-1.6,1.6h-8.5
		c-0.7,0-1.3-0.5-1.5-1.2L251.3,179.7z M248.4,166.2l-3.9-19.5c-0.1-0.2-0.2-0.3-0.4-0.3h-0.2c-0.2,0-0.3,0.1-0.4,0.3l-3.9,19.5
		c-0.2,0.6,0.2,0.9,0.6,0.9h7.5C248.3,167.1,248.6,166.9,248.4,166.2z"/>
	<path class="st1" d="M299.1,189.3c-1.4,0-2-0.7-2.2-1.4l-11-28.5c-0.2-0.5-0.7-0.3-0.7,0.2v28.1c0,0.9-0.7,1.6-1.6,1.6h-8.1
		c-0.9,0-1.6-0.7-1.6-1.6v-53.5c0-0.9,0.7-1.6,1.6-1.6h9.7c1.2,0,1.8,0.7,2,1.5l11.1,30.8c0.2,0.5,0.7,0.3,0.7-0.2v-30.5
		c0-0.9,0.7-1.6,1.6-1.6h8.1c0.9,0,1.6,0.7,1.6,1.6v53.5c0,0.9-0.7,1.6-1.6,1.6L299.1,189.3L299.1,189.3z"/>
	<path class="st1" d="M408.3,187.6c0,0.9-0.7,1.6-1.6,1.6h-8.1c-0.9,0-1.6-0.7-1.6-1.6v-53.5c0-0.9,0.7-1.6,1.6-1.6h8.1
		c0.9,0,1.6,0.7,1.6,1.6V187.6z"/>
	<path class="st1" d="M441.9,144.6v43c0,0.9-0.7,1.6-1.6,1.6h-8.1c-0.9,0-1.6-0.7-1.6-1.6v-43c0-0.5-0.3-0.8-0.8-0.8h-10.1
		c-0.9,0-1.6-0.7-1.6-1.6v-8.1c0-0.9,0.7-1.6,1.6-1.6h33.3c0.9,0,1.6,0.7,1.6,1.6v8.1c0,0.9-0.7,1.6-1.6,1.6h-10.1
		C442.3,143.8,441.9,144.2,441.9,144.6z"/>
	<path class="st1" d="M482.7,156.2c0.2,0.5,0.8,0.5,1,0l7.8-22.5c0.3-0.9,0.8-1.2,1.5-1.2h8.9c1.1,0,1.8,1.1,1.3,2.3l-14.4,36.2
		v16.7c0,0.9-0.7,1.6-1.6,1.6h-8.1c-0.9,0-1.6-0.7-1.6-1.6v-16.7l-14.4-36.2c-0.5-1.2,0.2-2.3,1.3-2.3h8.9c0.7,0,1.2,0.3,1.5,1.2
		L482.7,156.2z"/>
	<path class="st1" d="M334.9,187.6c0,0.9-0.7,1.6-1.6,1.6h-8.1c-0.9,0-1.6-0.7-1.6-1.6v-53.5c0-0.9,0.7-1.6,1.6-1.6h8.1
		c0.9,0,1.6,0.7,1.6,1.6V187.6z"/>
	<path class="st1" d="M385.7,171.7c0,10.9-8.1,18.5-19.3,18.5c-11.2,0-18.2-8.2-19.3-17.9c-0.8-6.8-0.8-15.9,0-22.7
		c1.1-9.7,8.1-17.9,19.3-17.9s19.3,7.7,19.3,18.5v0.1c0,0.8-0.7,1.6-1.6,1.6H376c-0.9,0-1.6-0.7-1.6-1.6v-0.1c0-3.3-2.8-7.1-8-7.1
		c-4.9,0-7.5,2.9-7.9,6.5c-0.8,6.8-0.8,15.9,0,22.7c0.4,3.6,2.9,6.5,7.9,6.5c4.8,0,8-3.5,8-7v-0.1c0-0.9,0.7-1.7,1.6-1.7h8.1
		C385,169.9,385.7,170.7,385.7,171.7L385.7,171.7L385.7,171.7z"/>
	<path class="st1" d="M118.2,149.5c0.8,6.8,0.8,15.9,0,22.7c-1.1,9.7-8.1,17.9-19.3,17.9c-11.2,0-18.2-8.2-19.3-17.9
		c-0.8-6.8-0.8-15.9,0-22.7c1.1-9.7,8.1-17.9,19.3-17.9C110,131.6,117,139.8,118.2,149.5z M106.7,172.2c0.8-6.8,0.8-15.9,0-22.7
		c-0.4-3.6-2.9-6.5-7.9-6.5c-4.9,0-7.5,2.9-7.9,6.5c-0.8,6.8-0.8,15.9,0,22.7c0.4,3.6,2.9,6.5,7.9,6.5
		C103.8,178.7,106.3,175.8,106.7,172.2z"/>
</g>
</svg>
