<?xml version="1.0" encoding="UTF-8"?>
<svg width="10px" height="20px" viewBox="0 0 233 284" version="1.1" xmlns="http://www.w3.org/2000/svg" xmlns:xlink="http://www.w3.org/1999/xlink">
    <path d="M207.111111,25.8181818 L153.003333,25.8181818 C147.566667,10.8436364 133.327778,0 116.5,0 C99.6722222,0 85.4333333,10.8436364 79.9966667,25.8181818 L25.8888889,25.8181818 C11.65,25.8181818 0,37.4363636 0,51.6363636 L0,258.181818 C0,272.381818 11.65,284 25.8888889,284 L207.111111,284 C221.35,284 233,272.381818 233,258.181818 L233,51.6363636 C233,37.4363636 221.35,25.8181818 207.111111,25.8181818 Z M116.5,25.8181818 C123.619444,25.8181818 129.444444,31.6272727 129.444444,38.7272727 C129.444444,45.8272727 123.619444,51.6363636 116.5,51.6363636 C109.380556,51.6363636 103.555556,45.8272727 103.555556,38.7272727 C103.555556,31.6272727 109.380556,25.8181818 116.5,25.8181818 Z M207.111111,258.181818 L25.8888889,258.181818 L25.8888889,51.6363636 L51.7777778,51.6363636 L51.7777778,90.3636364 L181.222222,90.3636364 L181.222222,51.6363636 L207.111111,51.6363636 L207.111111,258.181818 Z"></path>
</svg>